<?xml version="1.0" encoding="UTF-8"?><svg id="Layer_2" xmlns="http://www.w3.org/2000/svg" viewBox="0 0 40.96 40.96"><g id="Layer_2-2"><path d="m36.01,23.95h0c-2.06.73-3.03,3.08-2.09,5.05h0c1.49,3.13-1.78,6.4-4.91,4.91h0c-1.97-.94-4.32.04-5.05,2.09h0c-1.16,3.27-5.78,3.27-6.94,0h0c-.73-2.06-3.08-3.03-5.05-2.09h0c-3.13,1.49-6.4-1.78-4.91-4.91h0c.94-1.97-.04-4.32-2.09-5.05h0c-3.27-1.16-3.27-5.78,0-6.94h0c2.06-.73,3.03-3.08,2.09-5.05h0c-1.49-3.13,1.78-6.4,4.91-4.91h0c1.97.94,4.32-.04,5.05-2.09h0c1.16-3.27,5.78-3.27,6.94,0h0c.73,2.06,3.08,3.03,5.05,2.09h0c3.13-1.49,6.4,1.78,4.91,4.91h0c-.94,1.97.04,4.32,2.09,5.05h0c3.27,1.16,3.27,5.78,0,6.94Z" style="fill:#ff1d25; stroke:#fff; stroke-linejoin:round; stroke-width:5px;"/></g></svg>