<?xml version="1.0" encoding="UTF-8"?><svg id="Layer_2" xmlns="http://www.w3.org/2000/svg" viewBox="0 0 228.4 132.2"><g id="Layer_2-2"><path d="m223.27,50.21c-1.65-.24-3.32-.36-4.97-.36-2.92,0-5.74.6-8.39,1.78-.96-.65-2.12-1.03-3.36-1.03h-12.1c-2.85,0-5.23,1.99-5.84,4.65-.35-.3-.72-.59-1.1-.87-2.52-1.84-5.5-3.14-8.87-3.89-2.98-.66-6.24-.99-9.69-.99-1.21,0-2.37.06-3.51.15v-.7c1.94-.44,3.65-1,5.12-1.7,5.25-2.48,8.13-7.08,8.13-12.95,0-2.85-.71-5.44-2.08-7.63.51-.94.77-2,.73-3.08-.12-3.33-1.25-6.28-3.3-8.54-1.73-1.91-3.92-3.39-6.51-4.39-2.18-.85-4.61-1.43-7.22-1.74-2.34-.28-4.72-.42-7.08-.42-6.36,0-11.28.72-15,2.19v-3.44c0-3.31-2.69-6-6-6h-13.1c-3.31,0-6,2.69-6,6v2.35h-14.3c-1.24,0-2.45.38-3.45,1.09v-4.69c0-3.31-2.69-6-6-6h-12.5c-1.09,0-2.12.3-3,.81-.88-.51-1.91-.81-3-.81h-12.5c-1.62,0-3.1.65-4.18,1.7-.7-.29-1.47-.45-2.27-.45h-13.5c-1.4,0-2.67.48-3.69,1.28v7.5h-6V3.61c-1.13-1.48-2.89-2.36-4.76-2.36H7.9C4.59,1.25,1.9,3.94,1.9,7.25v35.7c0,.95.23,1.85.62,2.65-.4.8-.62,1.7-.62,2.65v35.7c0,2.81,1.93,5.16,4.54,5.81v.13c-.52.54-1.03,1.09-1.5,1.69-1.57,1.98-2.8,4.31-3.67,6.94-.85,2.57-1.28,5.5-1.28,8.73,0,3.43.47,6.5,1.39,9.13.94,2.67,2.23,5.02,3.85,6.96,1.64,1.97,3.59,3.59,5.8,4.81,1.95,1.08,4.03,1.94,6.19,2.57,2.08.6,4.24,1.01,6.41,1.21,1.98.18,3.9.28,5.7.28,2.22,0,4.27-.09,6.09-.28,1.93-.2,3.72-.52,5.32-.95,1.09-.29,2.14-.66,3.13-1.08.98.68,2.17,1.06,3.41,1.06h6.05c2.27,0,4.25-1.26,5.27-3.13.15.13.3.28.46.41,1.72,1.38,3.74,2.39,6,3,1.97.54,4.12.81,6.38.81,1.91,0,3.72-.18,5.38-.53,1.31-.28,2.53-.64,3.63-1.06.73.32,1.54.49,2.39.49h12.1c1.09,0,2.12-.3,3-.81.88.51,1.91.81,3,.81h12.5c2.5,0,4.63-1.52,5.54-3.69,2.02,1.66,4.34,2.9,6.92,3.68,2.42.74,4.98,1.11,7.59,1.11,3.61,0,6.58-.47,9.06-1.43.05-.02.1-.04.16-.06.66.25,1.38.39,2.13.39h12.1c2.68,0,4.94-1.75,5.71-4.17.28.21.55.41.82.59,4.66,3.15,10.74,4.68,18.61,4.68,3.31,0,6.28-.26,8.81-.77,2.66-.54,5.06-1.33,7.1-2.35,4.67-2.31,7.88-5.89,9.31-10.36.29-.9.35-1.84.21-2.75.14-.5.22-1.02.22-1.56.04-4.25-.63-7.96-2-11.03-1.45-3.24-3.55-5.88-6.24-7.85-2.52-1.84-5.5-3.14-8.87-3.89-2.98-.66-6.24-.99-9.69-.99-1.21,0-2.37.06-3.51.15v-.12c.5-.08,1-.15,1.47-.25,2.66-.54,5.06-1.33,7.1-2.35,1.04-.51,1.99-1.1,2.88-1.73.89,2.2,3.04,3.75,5.56,3.75h12.5c3.31,0,6-2.69,6-6v-10.25c0-.43.05-.66.07-.75.01-.02.02-.03.03-.04.26-.16.58-.28.96-.36.72-.14,1.44-.21,2.14-.21s1.34.06,1.93.18c.92.19,1.89.4,2.91.65.47.11.94.17,1.41.17,1.33,0,2.64-.44,3.71-1.28,1.45-1.14,2.29-2.88,2.29-4.72v-11.2c0-2.98-2.18-5.5-5.13-5.94Z" style="fill:#3fa9f5; stroke-width:0px;"/></g></svg>