<?xml version="1.0" encoding="UTF-8"?><svg id="Layer_2" xmlns="http://www.w3.org/2000/svg" viewBox="0 0 228.4 132.2"><g id="Layer_2-2"><path d="m80.85,72.65c-1.17.1-2.03.36-2.58.77-.55.42-.83,1.06-.83,1.93,0,.97.38,1.72,1.12,2.27s1.93.83,3.53.83c1.03,0,2.08-.08,3.15-.22,1.07-.15,2.02-.44,2.85-.88.83-.43,1.52-1.03,2.05-1.78s.8-1.71.8-2.88v-1.2c-1.07.23-2.46.43-4.17.6s-3.69.35-5.92.55Z" style="stroke-width:0px;"/><path d="m187,104.38c-1.3-.85-3.05-1.27-5.25-1.27s-3.92.37-5.15,1.1c-1.23.73-2.02,1.97-2.35,3.7h14.9c-.13-1.5-.85-2.67-2.15-3.53Z" style="stroke-width:0px;"/><path d="m175,63.38c-1.3-.85-3.05-1.27-5.25-1.27s-3.92.37-5.15,1.1c-1.23.73-2.02,1.97-2.35,3.7h14.9c-.13-1.5-.85-2.67-2.15-3.53Z" style="stroke-width:0px;"/><path d="m223.27,50.21c-1.65-.24-3.32-.36-4.97-.36-2.92,0-5.74.6-8.39,1.78-.96-.65-2.12-1.03-3.36-1.03h-12.1c-2.85,0-5.23,1.99-5.84,4.65-.35-.3-.72-.59-1.1-.87-2.52-1.84-5.5-3.14-8.87-3.89-2.98-.66-6.24-.99-9.69-.99-1.21,0-2.37.06-3.51.15v-.7c1.94-.44,3.65-1,5.12-1.7,5.25-2.48,8.13-7.08,8.13-12.95,0-2.85-.71-5.44-2.08-7.63.51-.94.77-2,.73-3.08-.12-3.33-1.25-6.28-3.3-8.54-1.73-1.91-3.92-3.39-6.51-4.39-2.18-.85-4.61-1.43-7.22-1.74-2.34-.28-4.72-.42-7.08-.42-6.36,0-11.28.72-15,2.19v-3.44c0-3.31-2.69-6-6-6h-13.1c-3.31,0-6,2.69-6,6v2.35h-14.3c-1.24,0-2.45.38-3.45,1.09v-4.69c0-3.31-2.69-6-6-6h-12.5c-1.09,0-2.12.3-3,.81-.88-.51-1.91-.81-3-.81h-12.5c-1.62,0-3.1.65-4.18,1.7-.7-.29-1.47-.45-2.27-.45h-13.5c-3.31,0-6,2.69-6,6v1.45l-3.59-4.96c-1.13-1.56-2.94-2.49-4.86-2.49H7.9C4.59,1.25,1.9,3.94,1.9,7.25v35.7c0,.95.23,1.85.62,2.65-.4.8-.62,1.7-.62,2.65v35.7c0,2.81,1.93,5.16,4.54,5.81v.13c-.52.54-1.03,1.09-1.5,1.69-1.57,1.98-2.8,4.31-3.67,6.94-.85,2.57-1.28,5.5-1.28,8.73,0,3.43.47,6.5,1.39,9.13.94,2.67,2.23,5.02,3.85,6.96,1.64,1.97,3.59,3.59,5.8,4.81,1.95,1.08,4.03,1.94,6.19,2.57,2.08.6,4.24,1.01,6.41,1.21,1.98.18,3.9.28,5.7.28,2.22,0,4.27-.09,6.09-.28,1.93-.2,3.72-.52,5.32-.95,1.09-.29,2.14-.66,3.13-1.08.98.68,2.17,1.06,3.41,1.06h6.05c2.27,0,4.25-1.26,5.27-3.13.15.13.3.28.46.41,1.72,1.38,3.74,2.39,6,3,1.97.54,4.12.81,6.38.81,1.91,0,3.72-.18,5.38-.53,1.31-.28,2.53-.64,3.63-1.06.73.32,1.54.49,2.39.49h12.1c1.09,0,2.12-.3,3-.81.88.51,1.91.81,3,.81h12.5c2.5,0,4.63-1.52,5.54-3.69,2.02,1.66,4.34,2.9,6.92,3.68,2.42.74,4.98,1.11,7.59,1.11,3.61,0,6.58-.47,9.06-1.43.05-.02.1-.04.16-.06.66.25,1.38.39,2.13.39h12.1c2.68,0,4.94-1.75,5.71-4.17.28.21.55.41.82.59,4.66,3.15,10.74,4.68,18.61,4.68,3.31,0,6.28-.26,8.81-.77,2.66-.54,5.06-1.33,7.1-2.35,4.67-2.31,7.88-5.89,9.31-10.36.29-.9.35-1.84.21-2.75.14-.5.22-1.02.22-1.56.04-4.25-.63-7.96-2-11.03-1.45-3.24-3.55-5.88-6.24-7.85-2.52-1.84-5.5-3.14-8.87-3.89-2.98-.66-6.24-.99-9.69-.99-1.21,0-2.37.06-3.51.15v-.12c.5-.08,1-.15,1.47-.25,2.66-.54,5.06-1.33,7.1-2.35,1.04-.51,1.99-1.1,2.88-1.73.89,2.2,3.04,3.75,5.56,3.75h12.5c3.31,0,6-2.69,6-6v-10.25c0-.43.05-.66.07-.75.01-.02.02-.03.03-.04.26-.16.58-.28.96-.36.72-.14,1.44-.21,2.14-.21s1.34.06,1.93.18c.92.19,1.89.4,2.91.65.47.11.94.17,1.41.17,1.33,0,2.64-.44,3.71-1.28,1.45-1.14,2.29-2.88,2.29-4.72v-11.2c0-2.98-2.18-5.5-5.13-5.94Zm-65.32-16.26c-.23-.33-.68-.53-1.35-.6l-12.2-1.25c-1.8-.2-3.3-.53-4.5-.98s-2.16-1.02-2.88-1.72-1.22-1.53-1.53-2.48c-.3-.95-.45-2.02-.45-3.22,0-3.23,1.49-5.58,4.47-7.03,2.98-1.45,7.56-2.17,13.72-2.17,2.13,0,4.26.12,6.38.38s4.03.71,5.75,1.38c1.72.67,3.12,1.61,4.23,2.83,1.1,1.22,1.68,2.79,1.75,4.72h-14.1c0-.8-.32-1.37-.95-1.7-.37-.2-.84-.37-1.43-.5s-1.34-.2-2.27-.2-1.69.05-2.28.15c-.58.1-1.03.23-1.35.4-.32.17-.53.37-.65.6s-.17.48-.17.75c0,.37.22.71.65,1.03.43.32,1.33.54,2.7.67l11.9,1.05c3.37.3,5.76,1.17,7.17,2.6,1.42,1.43,2.12,3.32,2.12,5.65,0,3.53-1.57,6.04-4.7,7.53s-8,2.22-14.6,2.22c-3.27,0-6.08-.17-8.42-.52-2.35-.35-4.29-.91-5.83-1.67s-2.69-1.76-3.47-2.98c-.78-1.22-1.23-2.69-1.33-4.42h14.7c.13,1.03.65,1.77,1.55,2.2.47.2,1,.33,1.6.4.6.07,1.25.1,1.95.1,1.6,0,2.69-.19,3.28-.58.58-.38.88-.89.88-1.53,0-.4-.12-.77-.35-1.1Zm-38.8-9.8c1.8-.2,3.21-.75,4.22-1.65,1.02-.9,1.58-2.25,1.67-4.05h-5.9V7.25h13.1v8.5c0,2.5-.48,4.58-1.45,6.23-.97,1.65-2.13,2.96-3.5,3.92-1.37.97-2.8,1.66-4.3,2.08s-2.78.64-3.85.67v-4.5ZM76.9,6h12.5v18.45l9.45-8.85h16.6l-12.45,10.2,13.7,17.15h-16.9l-6.5-9.2-3.9,3.2v6h-12.5V6Zm-18.5,0h12.5v6.9h-12.5v-6.9Zm0,9.6h12.5v27.35h-12.5V15.6ZM7.9,7.25h16.1l14.3,19.8h.15V7.25h13.5v35.7h-15.45l-15-20h-.1v20H7.9V7.25Zm23.3,109.95c2.3,0,4.07-.4,5.3-1.2s2.1-1.9,2.6-3.3h-5.8v-8.1h20.05v20.35h-6.05l-1.6-3.25c-.9.8-1.88,1.49-2.95,2.08-1.07.58-2.25,1.05-3.55,1.4-1.3.35-2.76.61-4.38.78-1.62.17-3.44.25-5.47.25-1.63,0-3.35-.08-5.15-.25-1.8-.17-3.57-.5-5.3-1-1.73-.5-3.38-1.18-4.95-2.05-1.57-.87-2.93-2-4.1-3.4-1.17-1.4-2.1-3.1-2.8-5.1-.7-2-1.05-4.38-1.05-7.15,0-2.6.33-4.88.98-6.85.65-1.97,1.54-3.67,2.67-5.1,1.13-1.43,2.45-2.62,3.95-3.55,1.5-.93,3.12-1.67,4.85-2.22,1.73-.55,3.53-.94,5.38-1.17s3.67-.35,5.47-.35c3.93,0,7.36.28,10.28.83,2.92.55,5.37,1.38,7.35,2.47,1.98,1.1,3.52,2.5,4.6,4.2,1.08,1.7,1.76,3.7,2.02,6h-15.9c-.2-.93-.54-1.69-1.03-2.27s-1.06-1.04-1.72-1.38c-.67-.33-1.4-.56-2.2-.68-.8-.12-1.67-.17-2.6-.17-1.47,0-2.78.18-3.93.55-1.15.37-2.13.96-2.95,1.78s-1.44,1.87-1.88,3.15c-.43,1.28-.65,2.82-.65,4.62,0,6.73,3.5,10.1,10.5,10.1Zm15.4-33.25v-25.5h-.1l-7.5,25.5h-10.7l-7.5-25.5h-.1v25.5H7.9v-35.7h19.85l5.85,20.75h.1l5.85-20.75h19.85v35.7h-12.8Zm48.35,41h-12.1v-3.05h-.1c-.33.43-.83.89-1.48,1.38-.65.48-1.45.93-2.4,1.35-.95.42-2.05.76-3.3,1.03-1.25.27-2.62.4-4.12.4-1.73,0-3.33-.2-4.8-.6s-2.74-1.03-3.83-1.9c-1.08-.87-1.93-1.97-2.55-3.32-.62-1.35-.92-2.98-.92-4.88v-17.75h12.5v14.5c0,1.73.42,2.99,1.28,3.77.85.78,2.02,1.17,3.52,1.17,2,0,3.47-.57,4.4-1.7.93-1.13,1.4-2.75,1.4-4.85v-12.9h12.5v27.35Zm-3.15-41c-.27-.8-.42-1.7-.45-2.7-1.4,1.3-3.2,2.26-5.4,2.88-2.2.62-4.97.92-8.3.92-2.1,0-3.99-.15-5.67-.45-1.68-.3-3.12-.82-4.33-1.55-1.2-.73-2.12-1.68-2.75-2.85-.63-1.17-.95-2.63-.95-4.4,0-1.23.23-2.36.7-3.38.47-1.02,1.21-1.9,2.23-2.65,1.02-.75,2.34-1.34,3.97-1.78,1.63-.43,3.6-.7,5.9-.8l10.55-.5c1.27-.07,2.14-.27,2.62-.6.48-.33.72-.88.72-1.65,0-.9-.52-1.57-1.55-2-1.03-.43-2.45-.65-4.25-.65-.7,0-1.4.03-2.1.1-.7.07-1.33.22-1.9.45-.57.23-1.06.55-1.47.95-.42.4-.69.93-.83,1.6h-12.5c.37-1.9.96-3.44,1.77-4.62.82-1.18,2.03-2.14,3.62-2.88,1.53-.7,3.45-1.19,5.75-1.48,2.3-.28,5.12-.42,8.45-.42s5.92.19,8.17.58c2.25.38,4.08,1.01,5.5,1.88,1.42.87,2.46,2,3.12,3.4.67,1.4,1,3.12,1,5.15v13.2c0,1.07.12,1.92.35,2.58.23.65.5,1.21.8,1.67h-12.8Zm21.65,41h-12.5v-27.35h12.5v27.35Zm0-30.05h-12.5v-6.9h12.5v6.9Zm-4.1-10.95v-36.95h12.5v18.45l9.45-8.85h16.6l-12.45,10.2,13.7,17.15h-16.9l-6.5-9.2-3.9,3.2v6h-12.5Zm47.6,41h-12.1v-2.9h-.1c-1.13,1.3-2.58,2.29-4.35,2.98-1.77.68-4.07,1.02-6.9,1.02-2.03,0-3.98-.28-5.85-.85-1.87-.57-3.52-1.45-4.95-2.65-1.43-1.2-2.58-2.72-3.45-4.55-.87-1.83-1.3-4.02-1.3-6.55s.43-4.72,1.3-6.55c.87-1.83,2.02-3.35,3.45-4.55,1.43-1.2,3.08-2.08,4.95-2.65,1.87-.57,3.82-.85,5.85-.85,5.07,0,8.68,1.28,10.85,3.85h.1v-12.7h12.5v36.95Zm24-28.45c3.03,0,5.83.28,8.4.85,2.57.57,4.77,1.52,6.62,2.88,1.85,1.35,3.28,3.17,4.3,5.45,1.02,2.28,1.51,5.12,1.47,8.53h-27.5c0,.5.13,1.03.4,1.6.27.57.7,1.1,1.3,1.6s1.38.92,2.35,1.25,2.13.5,3.5.5c1.63,0,2.96-.18,3.98-.55,1.02-.37,1.86-.98,2.52-1.85h13.3c-.93,2.93-3.02,5.2-6.25,6.8-1.6.8-3.48,1.42-5.62,1.85-2.15.43-4.69.65-7.62.65-6.57,0-11.65-1.22-15.25-3.65-3.6-2.43-5.4-6.15-5.4-11.15,0-2.37.44-4.47,1.33-6.3.88-1.83,2.16-3.38,3.83-4.62,1.67-1.25,3.71-2.2,6.12-2.85,2.42-.65,5.16-.98,8.22-.98Zm-18.3-21.7c.27.57.7,1.1,1.3,1.6s1.38.92,2.35,1.25,2.13.5,3.5.5c1.63,0,2.96-.18,3.98-.55,1.02-.37,1.86-.98,2.52-1.85h13.3c-.93,2.93-3.02,5.2-6.25,6.8-1.6.8-3.48,1.42-5.62,1.85-2.15.43-4.69.65-7.62.65-6.57,0-11.65-1.22-15.25-3.65-3.6-2.43-5.4-6.15-5.4-11.15,0-2.37.44-4.47,1.33-6.3.88-1.83,2.16-3.38,3.83-4.62,1.67-1.25,3.71-2.2,6.12-2.85,2.42-.65,5.16-.98,8.22-.98s5.83.28,8.4.85c2.57.57,4.77,1.52,6.62,2.88,1.85,1.35,3.28,3.17,4.3,5.45,1.02,2.28,1.51,5.12,1.47,8.53h-27.5c0,.5.13,1.03.4,1.6Zm59.75-7.45c-1.1-.27-2.14-.5-3.12-.7-.98-.2-2.03-.3-3.12-.3s-2.2.11-3.3.32c-1.1.22-2.09.6-2.98,1.15-.88.55-1.59,1.3-2.12,2.25s-.8,2.16-.8,3.62v10.25h-12.5v-27.35h12.1v5.25h.1c1.63-2.13,3.43-3.67,5.4-4.6,1.97-.93,4.05-1.4,6.25-1.4,1.37,0,2.73.1,4.1.3v11.2Z" style="stroke-width:0px;"/><path d="m137.55,105.25c-2.3,0-4.01.58-5.12,1.75-1.12,1.17-1.67,2.65-1.67,4.45s.53,3.28,1.6,4.45c1.07,1.17,2.82,1.75,5.25,1.75s4.14-.53,5.22-1.6c1.08-1.07,1.62-2.6,1.62-4.6s-.54-3.45-1.62-4.55c-1.08-1.1-2.84-1.65-5.28-1.65Z" style="stroke-width:0px;"/></g></svg>